<svg xmlns="http://www.w3.org/2000/svg" xmlns:xlink="http://www.w3.org/1999/xlink" width="500" zoomAndPan="magnify" viewBox="0 0 375 374.999991" height="500" preserveAspectRatio="xMidYMid meet" version="1.0"><defs><clipPath id="a0a1796afd"><path d="M 117 18.503906 L 244 18.503906 L 244 216 L 117 216 Z M 117 18.503906 " clip-rule="nonzero"/></clipPath><clipPath id="a5ef09070e"><path d="M 243 117 L 356.753906 117 L 356.753906 355 L 243 355 Z M 243 117 " clip-rule="nonzero"/></clipPath><clipPath id="7f1cbeec29"><path d="M 18.503906 118 L 118 118 L 118 356.753906 L 18.503906 356.753906 Z M 18.503906 118 " clip-rule="nonzero"/></clipPath><clipPath id="af3dc9d05b"><path d="M 18.503906 182.445312 L 356.753906 182.445312 L 356.753906 337.695312 L 18.503906 337.695312 Z M 18.503906 182.445312 " clip-rule="nonzero"/></clipPath></defs><g clip-path="url(#a0a1796afd)"><path fill="#d4a373" d="M 180.457031 18.503906 C 145.519531 18.503906 117.085938 46.9375 117.085938 81.878906 C 117.085938 113.972656 168.53125 202.246094 174.386719 212.203125 C 175.65625 214.34375 177.953125 215.664062 180.457031 215.664062 C 182.964844 215.664062 185.261719 214.34375 186.527344 212.203125 C 192.402344 202.246094 243.832031 113.972656 243.832031 81.878906 C 243.832031 46.9375 215.398438 18.503906 180.457031 18.503906 Z M 180.457031 103 C 168.8125 103 159.332031 93.523438 159.332031 81.878906 C 159.332031 70.230469 168.8125 60.753906 180.457031 60.753906 C 192.105469 60.753906 201.582031 70.230469 201.582031 81.878906 C 201.582031 93.523438 192.105469 103 180.457031 103 Z M 180.457031 103 " fill-opacity="1" fill-rule="nonzero"/></g><g clip-path="url(#a5ef09070e)"><path fill="#d4a373" d="M 353.792969 118.578125 C 352.074219 117.238281 349.835938 116.746094 347.75 117.296875 L 243.832031 143.277344 L 243.832031 354.945312 L 351.160156 328.117188 C 354.300781 327.328125 356.496094 324.527344 356.496094 321.289062 L 356.496094 124.125 C 356.496094 121.957031 355.496094 119.914062 353.792969 118.578125 Z M 353.792969 118.578125 " fill-opacity="1" fill-rule="nonzero"/></g><g clip-path="url(#7f1cbeec29)"><path fill="#d4a373" d="M 117.085938 118.816406 L 23.617188 145.519531 C 20.589844 146.390625 18.503906 149.152344 18.503906 152.292969 L 18.503906 349.453125 C 18.503906 351.664062 19.546875 353.75 21.304688 355.074219 C 22.546875 356.003906 24.039062 356.496094 25.546875 356.496094 C 26.191406 356.496094 26.839844 356.410156 27.472656 356.226562 L 117.085938 330.625 Z M 117.085938 118.816406 " fill-opacity="1" fill-rule="nonzero"/></g><path fill="#d4a373" d="M 198.652344 219.339844 C 194.863281 225.761719 187.894531 229.75 180.457031 229.75 C 173.023438 229.75 166.039062 225.761719 162.261719 219.339844 C 154.179688 205.625 142.308594 184.667969 131.167969 162.304688 L 131.167969 330.300781 L 229.75 354.945312 L 229.75 162.304688 C 218.625 184.667969 206.738281 205.625 198.652344 219.339844 Z M 198.652344 219.339844 " fill-opacity="1" fill-rule="nonzero"/><g clip-path="url(#af3dc9d05b)"><path fill="#1a3c34" d="M 64.503906 301.6875 C 65.277344 295.183594 71.164062 294.679688 82.15625 300.253906 C 84.289062 295.683594 87.113281 294.058594 90.636719 295.414062 C 115.761719 335.058594 140.65625 321.3125 148.4375 337.496094 C 151.496094 335.832031 146.617188 327.121094 144.449219 325.222656 C 132.835938 315.351562 121.839844 301.839844 111.425781 284.769531 C 106.898438 271.21875 140.65625 285 147.46875 302.1875 C 146.460938 291.621094 141.546875 277.761719 132.71875 260.570312 C 130.746094 239.394531 179.71875 313.917969 186.183594 310.398438 C 190.828125 282.675781 236.859375 330.21875 243.015625 335.792969 C 243.75 336.257812 202.132812 262.933594 223 286.9375 C 230.589844 295.648438 239.996094 300.5625 251.222656 301.6875 C 239.878906 289.917969 229.503906 275.824219 220.019531 259.371094 C 210.496094 253.640625 205.734375 246.789062 205.773438 238.8125 C 198.960938 198.164062 221.761719 248.6875 230.898438 251.125 C 231.363281 243.34375 228.808594 233.238281 223.273438 220.8125 C 220.253906 214.035156 208.058594 207.183594 213.285156 197.542969 C 216.882812 190.808594 237.789062 229.675781 241.082031 234.941406 C 258.113281 264.480469 254.863281 228.941406 271.78125 250.660156 C 271.238281 255.191406 271.472656 259.71875 272.515625 264.210938 C 280.257812 274.003906 289.203125 283.839844 299.382812 293.710938 C 301.785156 293.554688 298.417969 285.503906 289.203125 269.515625 C 295.28125 269.398438 300.933594 270.445312 306.121094 272.648438 C 329.773438 308.382812 346.539062 325.882812 356.449219 325.148438 C 340.460938 300.835938 324.199219 278.726562 307.589844 258.867188 C 300.3125 258.636719 291.875 258.171875 282.195312 257.433594 C 277.046875 252.363281 270.308594 238.621094 263.84375 237.265625 C 256.644531 235.753906 250.914062 232.695312 246.65625 228.167969 C 236.320312 209.855469 226.792969 196.113281 218.085938 187.054688 C 213.167969 181.363281 208.636719 180.9375 204.535156 185.851562 C 187.5 202.113281 171.125 221.390625 155.445312 243.652344 C 149.25 254.414062 143.441406 253.601562 138.023438 241.214844 C 134.421875 233.046875 130.976562 228.980469 127.648438 229.136719 C 116.460938 244 103.800781 259.640625 89.667969 276.058594 C 83.550781 277.644531 77.511719 278.921875 71.511719 279.929688 C 52.582031 295.648438 34.925781 312.992188 18.550781 331.921875 C 22.691406 333.625 29.3125 328.59375 38.371094 316.9375 C 39.804688 317.90625 41.742188 317.90625 44.179688 316.9375 C 60.246094 296.652344 82.507812 328.320312 77.628906 315.855469 C 76.507812 313.027344 72.132812 308.304688 64.503906 301.6875 Z M 64.503906 301.6875 " fill-opacity="1" fill-rule="evenodd"/></g></svg>